<?xml version="1.0" encoding="UTF-8" standalone="no"?>
<svg
   version="1.0"
   width="512.000000pt"
   height="512.000000pt"
   viewBox="0 0 512.000000 512.000000"
   preserveAspectRatio="xMidYMid meet"
   id="svg12"
   sodipodi:docname="github_icon_branco.svg"
   inkscape:version="1.2 (dc2aedaf03, 2022-05-15)"
   xmlns:inkscape="http://www.inkscape.org/namespaces/inkscape"
   xmlns:sodipodi="http://sodipodi.sourceforge.net/DTD/sodipodi-0.dtd"
   xmlns="http://www.w3.org/2000/svg"
   xmlns:svg="http://www.w3.org/2000/svg">
  <defs
     id="defs16" />
  <sodipodi:namedview
     id="namedview14"
     pagecolor="#ffffff"
     bordercolor="#666666"
     borderopacity="1.0"
     inkscape:showpageshadow="2"
     inkscape:pageopacity="0.0"
     inkscape:pagecheckerboard="0"
     inkscape:deskcolor="#d1d1d1"
     inkscape:document-units="pt"
     showgrid="false"
     inkscape:zoom="0.68408203"
     inkscape:cx="340.60243"
     inkscape:cy="341.33333"
     inkscape:window-width="1366"
     inkscape:window-height="731"
     inkscape:window-x="0"
     inkscape:window-y="0"
     inkscape:window-maximized="1"
     inkscape:current-layer="svg12" />
  <g
     transform="translate(0.000000,512.000000) scale(0.100000,-0.100000)"
     fill="#000000"
     stroke="none"
     id="g10"
     style="fill:#f9f9f9">
    <path
       d="M2330 4465 c-234 -29 -407 -82 -625 -191 -383 -191 -668 -475 -860 -859 -111 -223 -170 -423 -195 -665 -89 -856 425 -1682 1235 -1986 706 -264 1499 -93 2031 440 479 481 671 1176 504 1829 -37 141 -70 230 -146 382 -152 307 -366 551 -649 740 -380 254 -845 366 -1295 310z m482 -434 c601 -104 1074 -559 1211 -1169 18 -82 21 -128 21 -302 0 -174 -3 -220 -21 -302 -32 -139 -66 -238 -129 -363 -211 -425 -617 -726 -1089 -807 -153 -26 -408 -21 -550 10 -452 101 -828 392 -1029 797 -106 213 -145 372 -153 620 -4 143 -2 189 15 290 81 472 381 878 807 1089 154 77 287 117 485 149 79 13 326 6 432 -12z"
       id="path2"
       style="fill:#f9f9f9" />
    <path
       d="M1817 3364 c-12 -21 -46 -155 -56 -221 -6 -39 -11 -108 -11 -152 0 -78 -1 -82 -40 -133 -80 -106 -117 -246 -107 -408 19 -310 132 -501 364 -619 128 -65 242 -81 593 -81 423 0 538 25 704 151 159 120 237 290 253 549 10 162 -27 302 -107 408 -38 50 -40 56 -40 126 0 97 -16 208 -43 304 -22 77 -23 77 -55 75 -73 -3 -255 -81 -381 -163 l-63 -41 -69 10 c-89 14 -312 14 -398 0 l-68 -12 -62 42 c-146 100 -394 198 -414 165z m808 -784 c83 3 211 5 285 5 131 0 137 -1 189 -30 123 -68 179 -193 160 -361 -25 -229 -165 -317 -546 -346 -115 -8 -191 -8 -305 0 -352 27 -490 102 -534 291 -39 163 6 320 113 394 71 49 128 58 318 50 94 -5 238 -6 320 -3z"
       id="path4"
       style="fill:#f9f9f9" />
    <path
       d="M2180 2413 c-109 -56 -116 -269 -10 -340 152 -104 269 193 128 324 -34 32 -76 37 -118 16z"
       id="path6"
       style="fill:#f9f9f9" />
    <path
       d="M2865 2423 c-29 -7 -75 -53 -91 -90 -8 -18 -14 -60 -14 -95 0 -142 98 -228 190 -165 50 33 75 89 75 167 -1 121 -74 205 -160 183z"
       id="path8"
       style="fill:#f9f9f9" />
  </g>
</svg>
