<?xml version="1.0" encoding="UTF-8" standalone="no"?>
<svg
   version="1.0"
   width="512.000000pt"
   height="512.000000pt"
   viewBox="0 0 512.000000 512.000000"
   preserveAspectRatio="xMidYMid meet"
   id="svg188"
   sodipodi:docname="linkedin_icon_branco.svg"
   inkscape:version="1.2 (dc2aedaf03, 2022-05-15)"
   xmlns:inkscape="http://www.inkscape.org/namespaces/inkscape"
   xmlns:sodipodi="http://sodipodi.sourceforge.net/DTD/sodipodi-0.dtd"
   xmlns="http://www.w3.org/2000/svg"
   xmlns:svg="http://www.w3.org/2000/svg">
  <defs
     id="defs192" />
  <sodipodi:namedview
     id="namedview190"
     pagecolor="#ffffff"
     bordercolor="#666666"
     borderopacity="1.0"
     inkscape:showpageshadow="2"
     inkscape:pageopacity="0.0"
     inkscape:pagecheckerboard="0"
     inkscape:deskcolor="#d1d1d1"
     inkscape:document-units="pt"
     showgrid="false"
     inkscape:zoom="0.76025391"
     inkscape:cx="340.67566"
     inkscape:cy="341.33333"
     inkscape:window-width="1366"
     inkscape:window-height="731"
     inkscape:window-x="0"
     inkscape:window-y="0"
     inkscape:window-maximized="1"
     inkscape:current-layer="svg188" />
  <g
     transform="translate(0.000000,512.000000) scale(0.100000,-0.100000)"
     fill="#000000"
     stroke="none"
     id="g186"
     style="fill:#f9f9f9">
    <path
       d="M2330 4465 c-236 -29 -405 -81 -625 -191 -301 -149 -535 -352 -727 -629 -85 -123 -196 -345 -242 -485 -225 -689 -44 -1445 468 -1956 524 -521 1275 -695 1986 -458 117 40 345 155 455 232 278 193 480 427 629 727 82 165 121 274 160 446 192 862 -243 1754 -1044 2138 -334 160 -699 221 -1060 176z m482 -434 c464 -80 872 -383 1082 -806 63 -125 97 -224 129 -363 18 -82 21 -128 21 -302 0 -174 -3 -220 -21 -302 -32 -139 -66 -238 -129 -363 -202 -406 -576 -695 -1032 -798 -82 -18 -128 -21 -302 -21 -173 0 -220 3 -300 21 -459 103 -832 391 -1034 798 -106 213 -145 372 -153 620 -4 143 -2 189 15 290 81 472 382 878 807 1089 154 77 287 117 485 149 79 13 326 6 432 -12z"
       id="path178"
       style="fill:#f9f9f9" />
    <path
       d="M1904 3440 c-39 -12 -102 -73 -110 -106 -4 -13 -4 -52 -2 -84 7 -97 63 -140 180 -140 120 0 178 55 178 169 0 77 -21 121 -71 147 -39 19 -132 27 -175 14z"
       id="path180"
       style="fill:#f9f9f9" />
    <path
       d="M2875 2977 c-72 -24 -120 -54 -167 -105 l-47 -50 -6 36 c-4 20 -9 53 -13 72 l-8 35 -148 3 -149 3 6 -128 c4 -71 7 -320 7 -555 l0 -428 175 0 175 0 0 353 c0 321 2 355 19 392 26 57 68 92 124 105 88 19 160 -15 193 -92 17 -39 19 -79 22 -400 l3 -358 176 0 175 0 -5 388 c-3 350 -6 393 -24 453 -26 87 -62 148 -118 197 -78 68 -125 85 -245 89 -68 2 -119 -2 -145 -10z"
       id="path182"
       style="fill:#f9f9f9" />
    <path
       d="M1800 2415 l0 -555 170 0 170 0 0 555 0 555 -170 0 -170 0 0 -555z"
       id="path184"
       style="fill:#f9f9f9" />
  </g>
</svg>
