<?xml version="1.0" encoding="utf-8"?><svg xmlns="http://www.w3.org/2000/svg" xmlns:xlink="http://www.w3.org/1999/xlink" width="1366" height="691" preserveAspectRatio="xMidYMid" viewBox="0 0 1366 691" style="z-index:1;margin-right:-2px;display:block;background-repeat-y:initial;background-repeat-x:initial;background-color:rgb(0, 53, 102);animation-play-state:paused" ><g transform="translate(683,345.5) scale(1,1) translate(-683,-345.5)" style="transform:matrix(1, 0, 0, 1, 0, 0);animation-play-state:paused" ><linearGradient id="lg-0.5834896436139947" x1="0" x2="1" y1="0" y2="0" style="animation-play-state:paused" ><stop stop-color="#000814" offset="0" style="animation-play-state:paused" ></stop>

  
<stop stop-color="#001d3d" offset="1" style="animation-play-state:paused" ></stop></linearGradient>
<path d="M 0 0 L 0 587.43 Q 136.6 643.317 273.2 624.044 T 546.4 480.215 T 819.6 402.299 T 1092.8 386.769 T 1366 279.678 L 1366 0 Z" fill="url(#lg-0.5834896436139947)" opacity="0.4" style="opacity:0.4;animation-play-state:paused" ></path>
<path d="M 0 0 L 0 615.265 Q 136.6 583.86 273.2 557.348 T 546.4 446.554 T 819.6 432.571 T 1092.8 374.9 T 1366 288.377 L 1366 0 Z" fill="url(#lg-0.5834896436139947)" opacity="0.4" style="opacity:0.4;animation-play-state:paused" ></path>
<path d="M 0 0 L 0 621.809 Q 136.6 627.306 273.2 596.739 T 546.4 473.924 T 819.6 481.408 T 1092.8 338.902 T 1366 253.199 L 1366 0 Z" fill="url(#lg-0.5834896436139947)" opacity="0.4" style="opacity:0.4;animation-play-state:paused" ></path>
<path d="M 0 0 L 0 660.856 Q 136.6 624.313 273.2 600.836 T 546.4 525.142 T 819.6 423.774 T 1092.8 361.204 T 1366 254.253 L 1366 0 Z" fill="url(#lg-0.5834896436139947)" opacity="0.4" style="opacity:0.4;animation-play-state:paused" ></path>
<path d="M 0 0 L 0 615.467 Q 136.6 588.452 273.2 550.751 T 546.4 438.593 T 819.6 466.394 T 1092.8 313.698 T 1366 267.125 L 1366 0 Z" fill="url(#lg-0.5834896436139947)" opacity="0.4" style="opacity:0.4;animation-play-state:paused" ></path></g></svg>